# Blender 4.1.0
# www.blender.org
mtllib bench_simple.mtl
o Cube
v 4.289766 0.177465 -1.091553
v 4.289766 -0.177465 -1.091553
v 4.289766 0.177465 -0.117201
v 4.289766 -0.177465 -0.117201
v -4.289766 0.177465 -1.091553
v -4.289766 -0.177465 -1.091553
v -4.289766 0.177465 -0.117201
v -4.289766 -0.177465 -0.117201
v 4.289766 0.177465 0.105295
v 4.289766 -0.177465 0.105295
v 4.289766 0.177465 1.079647
v 4.289766 -0.177465 1.079647
v -4.289766 0.177465 0.105295
v -4.289766 -0.177465 0.105295
v -4.289766 0.177465 1.079647
v -4.289766 -0.177465 1.079647
v -3.861492 -0.340030 1.024733
v -3.861492 -0.040030 1.024733
v -3.861492 -0.340030 -0.975267
v -3.861492 -0.040030 -0.975267
v -3.561492 -0.340030 1.024733
v -3.561492 -0.040030 1.024733
v -3.561492 -0.340030 -0.975267
v -3.561492 -0.040030 -0.975267
v -3.861492 -0.340030 0.724733
v -3.861492 -0.040030 0.724733
v -3.561492 -0.340030 0.724733
v -3.561492 -0.040030 0.724733
v -3.861492 -0.040030 -0.658143
v -3.561492 -0.340030 -0.658143
v -3.861492 -0.340030 -0.658143
v -3.561492 -0.040030 -0.658143
v -3.861492 -1.584597 1.305911
v -3.561492 -1.584597 1.305911
v -3.861492 -1.584597 1.005911
v -3.561492 -1.584597 1.005911
v -3.861492 -1.606638 -1.391118
v -3.561492 -1.606638 -1.391118
v -3.561492 -1.606638 -1.073994
v -3.861492 -1.606638 -1.073994
v 3.594824 -0.340030 1.024733
v 3.594824 -0.040030 1.024733
v 3.594824 -0.340030 -0.975267
v 3.594824 -0.040030 -0.975267
v 3.894824 -0.340030 1.024733
v 3.894824 -0.040030 1.024733
v 3.894824 -0.340030 -0.975267
v 3.894824 -0.040030 -0.975267
v 3.594824 -0.340030 0.724733
v 3.594824 -0.040030 0.724733
v 3.894824 -0.340030 0.724733
v 3.894824 -0.040030 0.724733
v 3.594824 -0.040030 -0.658143
v 3.894824 -0.340030 -0.658143
v 3.594824 -0.340030 -0.658143
v 3.894824 -0.040030 -0.658143
v 3.594824 -1.584597 1.305911
v 3.894824 -1.584597 1.305911
v 3.594824 -1.584597 1.005911
v 3.894824 -1.584597 1.005911
v 3.594824 -1.606638 -1.391118
v 3.894824 -1.606638 -1.391118
v 3.894824 -1.606638 -1.073994
v 3.594824 -1.606638 -1.073994
vn -0.0000 1.0000 -0.0000
vn -0.0000 -0.0000 1.0000
vn -1.0000 -0.0000 -0.0000
vn -0.0000 -1.0000 -0.0000
vn 1.0000 -0.0000 -0.0000
vn -0.0000 -0.0000 -1.0000
vn -0.0000 0.2204 0.9754
vn -0.0000 0.3119 -0.9501
vn -0.0000 -0.2204 -0.9754
vn -0.0000 -0.3119 0.9501
vt 0.625000 0.500000
vt 0.875000 0.500000
vt 0.875000 0.750000
vt 0.625000 0.750000
vt 0.375000 0.750000
vt 0.625000 1.000000
vt 0.375000 1.000000
vt 0.375000 0.000000
vt 0.625000 0.000000
vt 0.625000 0.250000
vt 0.375000 0.250000
vt 0.125000 0.500000
vt 0.375000 0.500000
vt 0.125000 0.750000
vt 0.375000 0.210359
vt 0.625000 0.210359
vt 0.375000 0.712500
vt 0.625000 0.712500
vt 0.875000 0.712500
vt 0.625000 0.539641
vt 0.875000 0.539640
vt 0.125000 0.539640
vt 0.375000 0.539641
vt 0.125000 0.712500
vt 0.625000 0.037500
vt 0.375000 0.037500
s 0
usemtl Material.001
f 1/1/1 5/2/1 7/3/1 3/4/1
f 4/5/2 3/4/2 7/6/2 8/7/2
f 8/8/3 7/9/3 5/10/3 6/11/3
f 6/12/4 2/13/4 4/5/4 8/14/4
f 2/13/5 1/1/5 3/4/5 4/5/5
f 6/11/6 5/10/6 1/1/6 2/13/6
f 9/1/1 13/2/1 15/3/1 11/4/1
f 12/5/2 11/4/2 15/6/2 16/7/2
f 16/8/3 15/9/3 13/10/3 14/11/3
f 14/12/4 10/13/4 12/5/4 16/14/4
f 10/13/5 9/1/5 11/4/5 12/5/5
f 14/11/6 13/10/6 9/1/6 10/13/6
usemtl Material.002
f 31/15/3 29/16/3 20/10/3 19/11/3
f 19/11/6 20/10/6 24/1/6 23/13/6
f 27/17/5 28/18/5 22/4/5 21/5/5
f 21/5/2 22/4/2 18/6/2 17/7/2
f 21/5/7 17/7/7 33/7/7 34/5/7
f 28/18/1 26/19/1 18/3/1 22/4/1
f 32/20/1 29/21/1 26/19/1 28/18/1
f 31/22/4 30/23/4 27/17/4 25/24/4
f 30/23/5 32/20/5 28/18/5 27/17/5
f 17/8/3 18/9/3 26/25/3 25/26/3
f 23/13/5 24/1/5 32/20/5 30/23/5
f 19/11/8 23/13/8 38/13/8 37/11/8
f 24/1/1 20/2/1 29/21/1 32/20/1
f 25/26/3 26/25/3 29/16/3 31/15/3
f 35/24/4 36/17/4 34/5/4 33/14/4
f 25/24/9 27/17/9 36/17/9 35/24/9
f 17/8/3 25/26/3 35/26/3 33/8/3
f 27/17/5 21/5/5 34/5/5 36/17/5
f 37/12/4 38/13/4 39/23/4 40/22/4
f 31/15/3 19/11/3 37/11/3 40/15/3
f 23/13/5 30/23/5 39/23/5 38/13/5
f 30/23/10 31/22/10 40/22/10 39/23/10
f 55/15/3 53/16/3 44/10/3 43/11/3
f 43/11/6 44/10/6 48/1/6 47/13/6
f 51/17/5 52/18/5 46/4/5 45/5/5
f 45/5/2 46/4/2 42/6/2 41/7/2
f 45/5/7 41/7/7 57/7/7 58/5/7
f 52/18/1 50/19/1 42/3/1 46/4/1
f 56/20/1 53/21/1 50/19/1 52/18/1
f 55/22/4 54/23/4 51/17/4 49/24/4
f 54/23/5 56/20/5 52/18/5 51/17/5
f 41/8/3 42/9/3 50/25/3 49/26/3
f 47/13/5 48/1/5 56/20/5 54/23/5
f 43/11/8 47/13/8 62/13/8 61/11/8
f 48/1/1 44/2/1 53/21/1 56/20/1
f 49/26/3 50/25/3 53/16/3 55/15/3
f 59/24/4 60/17/4 58/5/4 57/14/4
f 49/24/9 51/17/9 60/17/9 59/24/9
f 41/8/3 49/26/3 59/26/3 57/8/3
f 51/17/5 45/5/5 58/5/5 60/17/5
f 61/12/4 62/13/4 63/23/4 64/22/4
f 55/15/3 43/11/3 61/11/3 64/15/3
f 47/13/5 54/23/5 63/23/5 62/13/5
f 54/23/10 55/22/10 64/22/10 63/23/10
