# Blender 4.1.0
# www.blender.org
mtllib street_lamp.mtl
o Cylinder
v 0.429828 0.010893 -0.200574
v 0.429828 0.722611 -0.098349
v 0.607757 0.010893 -0.152898
v 0.556644 0.722611 -0.064368
v 0.738011 0.010893 -0.022645
v 0.649480 0.722611 0.028468
v 0.785687 0.010893 0.155285
v 0.683461 0.722611 0.155285
v 0.738011 0.010893 0.333214
v 0.649480 0.722611 0.282101
v 0.607757 0.010893 0.463467
v 0.556644 0.722611 0.374937
v 0.429828 0.010893 0.511144
v 0.429828 0.722611 0.408918
v 0.251898 0.010893 0.463467
v 0.303011 0.722611 0.374937
v 0.121645 0.010893 0.333214
v 0.210175 0.722611 0.282101
v 0.073969 0.010893 0.155285
v 0.176194 0.722611 0.155285
v 0.121645 0.010893 -0.022645
v 0.210175 0.722611 0.028468
v 0.251898 0.010893 -0.152898
v 0.303011 0.722611 -0.064368
v 0.429828 1.381515 -0.118909
v 0.566924 1.381515 -0.082174
v 0.667286 1.381515 0.018188
v 0.704021 1.381515 0.155285
v 0.667286 1.381515 0.292381
v 0.566924 1.381515 0.392743
v 0.429828 1.381515 0.429478
v 0.292731 1.381515 0.392743
v 0.192369 1.381515 0.292381
v 0.155634 1.381515 0.155285
v 0.192369 1.381515 0.018188
v 0.292731 1.381515 -0.082174
v 0.429828 1.530986 -0.241630
v 0.628285 1.530986 -0.188453
v 0.773565 1.530986 -0.043173
v 0.826742 1.530986 0.155285
v 0.773565 1.530986 0.353742
v 0.628285 1.530986 0.499022
v 0.429828 1.530986 0.552199
v 0.231371 1.530986 0.499022
v 0.086090 1.530986 0.353742
v 0.032914 1.530986 0.155285
v 0.086090 1.530986 -0.043173
v 0.231371 1.530986 -0.188453
v 0.429828 1.616264 -0.241630
v 0.628285 1.616264 -0.188453
v 0.773565 1.616264 -0.043173
v 0.826742 1.616264 0.155285
v 0.773565 1.616264 0.353742
v 0.628285 1.616264 0.499022
v 0.429828 1.616264 0.552199
v 0.231371 1.616264 0.499022
v 0.086090 1.616264 0.353742
v 0.032914 1.616264 0.155285
v 0.086090 1.616264 -0.043173
v 0.231371 1.616264 -0.188453
v 0.429828 1.770953 -0.045099
v 0.530019 1.770953 -0.018252
v 0.603364 1.770953 0.055093
v 0.630211 1.770953 0.155285
v 0.603364 1.770953 0.255476
v 0.530019 1.770953 0.328821
v 0.429828 1.770953 0.355668
v 0.329636 1.770953 0.328821
v 0.256291 1.770953 0.255476
v 0.229445 1.770953 0.155285
v 0.256291 1.770953 0.055093
v 0.329636 1.770953 -0.018252
v 0.429828 4.298645 -0.045099
v 0.530019 4.298645 -0.018252
v 0.603364 4.298645 0.055093
v 0.630211 4.298645 0.155285
v 0.603364 4.298645 0.255476
v 0.530019 4.298645 0.328821
v 0.429828 4.298645 0.355668
v 0.329636 4.298645 0.328821
v 0.256291 4.298645 0.255476
v 0.229445 4.298645 0.155285
v 0.256291 4.298645 0.055093
v 0.329636 4.298645 -0.018252
v 0.429828 4.298645 0.031246
v 0.491847 4.298645 0.047864
v 0.537248 4.298645 0.093265
v 0.553867 4.298645 0.155285
v 0.537248 4.298645 0.217304
v 0.491847 4.298645 0.262705
v 0.429828 4.298645 0.279323
v 0.367808 4.298645 0.262705
v 0.322407 4.298645 0.217304
v 0.305789 4.298645 0.155285
v 0.322407 4.298645 0.093265
v 0.367808 4.298645 0.047864
v 0.429828 6.901035 0.031246
v 0.491847 6.901035 0.047864
v 0.537248 6.901035 0.093265
v 0.553867 6.901035 0.155285
v 0.537248 6.901035 0.217304
v 0.491847 6.901035 0.262705
v 0.429828 6.901035 0.279323
v 0.367808 6.901035 0.262705
v 0.322407 6.901035 0.217304
v 0.305789 6.901035 0.155285
v 0.322407 6.901035 0.093265
v 0.367808 6.901035 0.047864
v 0.429828 6.901035 0.031246
v 0.491847 6.901035 0.047864
v 0.537248 6.901035 0.093265
v 0.553867 6.901035 0.155285
v 0.537248 6.901035 0.217304
v 0.491847 6.901035 0.262705
v 0.429828 6.901035 0.279323
v 0.367808 6.901035 0.262705
v 0.322407 6.901035 0.217304
v 0.305789 6.901035 0.155285
v 0.322407 6.901035 0.093265
v 0.367808 6.901035 0.047864
v 0.429828 6.901035 0.054024
v 0.480458 6.901035 0.067591
v 0.517522 6.901035 0.104654
v 0.531088 6.901035 0.155285
v 0.517522 6.901035 0.205915
v 0.480458 6.901035 0.242978
v 0.429828 6.901035 0.256545
v 0.379197 6.901035 0.242978
v 0.342134 6.901035 0.205915
v 0.328567 6.901035 0.155285
v 0.342134 6.901035 0.104654
v 0.379197 6.901035 0.067591
v 0.429828 7.335716 0.054024
v 0.480458 7.335716 0.067591
v 0.517522 7.335716 0.104654
v 0.531088 7.335716 0.155285
v 0.517522 7.335716 0.205915
v 0.480458 7.335716 0.242978
v 0.429828 7.335716 0.256545
v 0.379197 7.335716 0.242978
v 0.342134 7.335716 0.205915
v 0.328567 7.335716 0.155285
v 0.342134 7.335716 0.104654
v 0.379197 7.335716 0.067591
v 0.429828 7.374609 -2.509712
v 0.429828 7.374609 0.204687
v 0.498905 7.334728 -2.509712
v 0.498905 7.334728 0.204687
v 0.498905 7.254963 -2.509712
v 0.498905 7.254963 0.204687
v 0.429828 7.215082 -2.509712
v 0.429828 7.215082 0.204687
v 0.360750 7.254963 -2.509712
v 0.360750 7.254963 0.204687
v 0.360750 7.334728 -2.509712
v 0.360750 7.334728 0.204687
v 0.443601 6.843450 -2.769876
v 0.443601 7.363241 -2.509980
v 0.259827 6.843450 -2.693754
v 0.183705 6.843450 -2.509980
v 0.259827 6.843450 -2.326206
v 0.443601 6.843450 -2.250084
v 0.627375 6.843450 -2.326206
v 0.703496 6.843450 -2.509980
v 0.627375 6.843450 -2.693754
v 0.443601 6.843450 -2.661904
v 0.336174 6.843450 -2.617407
v 0.291677 6.843450 -2.509980
v 0.336174 6.843450 -2.402554
v 0.443601 6.843450 -2.358056
v 0.551027 6.843450 -2.402554
v 0.595525 6.843450 -2.509980
v 0.551027 6.843450 -2.617407
v 0.443601 7.014023 -2.580421
v 0.393791 7.014023 -2.559790
v 0.373159 7.014023 -2.509980
v 0.393791 7.014023 -2.460171
v 0.443601 7.014023 -2.439539
v 0.493410 7.014023 -2.460171
v 0.514042 7.014023 -2.509980
v 0.493410 7.014023 -2.559790
vn 0.2564 0.1374 -0.9568
vn 0.7004 0.1374 -0.7004
vn 0.9568 0.1374 -0.2564
vn 0.9568 0.1374 0.2564
vn 0.7004 0.1374 0.7004
vn 0.2564 0.1374 0.9568
vn -0.2564 0.1374 0.9568
vn -0.7004 0.1374 0.7004
vn -0.9568 0.1374 0.2564
vn -0.9568 0.1374 -0.2564
vn 0.9655 -0.0301 0.2587
vn -0.7004 0.1374 -0.7004
vn -0.2564 0.1374 -0.9568
vn -0.0000 -1.0000 -0.0000
vn -0.2028 -0.6214 -0.7568
vn -0.2587 -0.0301 -0.9655
vn 0.2587 -0.0301 -0.9655
vn 0.9655 -0.0301 -0.2587
vn -0.7068 -0.0301 -0.7068
vn 0.7068 -0.0301 -0.7068
vn -0.9655 -0.0301 -0.2587
vn -0.9655 -0.0301 0.2587
vn -0.7068 -0.0301 0.7068
vn -0.2587 -0.0301 0.9655
vn 0.2587 -0.0301 0.9655
vn 0.7068 -0.0301 0.7068
vn 0.7071 -0.0000 0.7071
vn 0.5540 -0.6214 -0.5540
vn -0.7568 -0.6214 0.2028
vn 0.2028 -0.6214 0.7568
vn 0.7568 -0.6214 -0.2028
vn -0.7568 -0.6214 -0.2028
vn -0.2028 -0.6214 0.7568
vn 0.7568 -0.6214 0.2028
vn -0.5540 -0.6214 -0.5540
vn 0.2028 -0.6214 -0.7568
vn -0.5540 -0.6214 0.5540
vn 0.5540 -0.6214 0.5540
vn -0.1635 0.7752 0.6102
vn -0.2588 -0.0000 -0.9659
vn 0.7071 -0.0000 -0.7071
vn -0.9659 -0.0000 0.2588
vn 0.2588 -0.0000 0.9659
vn 0.9659 -0.0000 -0.2588
vn -0.9659 -0.0000 -0.2588
vn -0.2588 -0.0000 0.9659
vn 0.9659 -0.0000 0.2588
vn -0.7071 -0.0000 -0.7071
vn 0.2588 -0.0000 -0.9659
vn -0.7071 -0.0000 0.7071
vn 0.6102 0.7752 0.1635
vn -0.4467 0.7752 -0.4467
vn 0.1635 0.7752 -0.6102
vn -0.4467 0.7752 0.4467
vn 0.4467 0.7752 0.4467
vn -0.1635 0.7752 -0.6102
vn 0.4467 0.7752 -0.4467
vn -0.6102 0.7752 0.1635
vn 0.1635 0.7752 0.6102
vn 0.6102 0.7752 -0.1635
vn -0.6102 0.7752 -0.1635
vn -0.0000 1.0000 -0.0000
vn 0.5000 0.8660 -0.0000
vn 1.0000 -0.0000 -0.0000
vn 0.5000 -0.8660 -0.0000
vn -0.5000 -0.8660 -0.0000
vn -0.0000 -0.0000 1.0000
vn -1.0000 -0.0000 -0.0000
vn -0.5000 0.8660 -0.0000
vn -0.0000 -0.0000 -1.0000
vn -0.8387 0.4194 -0.3474
vn -0.3474 0.4194 0.8387
vn 0.3474 0.4194 0.8387
vn 0.8387 0.4194 0.3474
vn 0.8387 0.4194 -0.3474
vn -0.3474 0.4194 -0.8387
vn 0.3474 0.4194 -0.8387
vn -0.8387 0.4194 0.3474
vn -0.3501 -0.4038 -0.8452
vn 0.3501 -0.4038 -0.8452
vn 0.8452 -0.4038 -0.3501
vn 0.8452 -0.4038 0.3501
vn 0.3501 -0.4038 0.8452
vn -0.3501 -0.4038 0.8452
vn -0.8452 -0.4038 0.3501
vn -0.8452 -0.4038 -0.3501
vt 1.000000 0.500000
vt 1.000000 1.000000
vt 0.916667 1.000000
vt 0.916667 0.500000
vt 0.833333 1.000000
vt 0.833333 0.500000
vt 0.750000 1.000000
vt 0.750000 0.500000
vt 0.666667 1.000000
vt 0.666667 0.500000
vt 0.583333 1.000000
vt 0.583333 0.500000
vt 0.500000 1.000000
vt 0.500000 0.500000
vt 0.416667 1.000000
vt 0.416667 0.500000
vt 0.333333 1.000000
vt 0.333333 0.500000
vt 0.250000 1.000000
vt 0.250000 0.500000
vt 0.166667 1.000000
vt 0.166667 0.500000
vt 0.083333 1.000000
vt 0.083333 0.500000
vt 0.000000 1.000000
vt 0.000000 0.500000
vt 0.750000 0.490000
vt 0.870000 0.457846
vt 0.957846 0.370000
vt 0.990000 0.250000
vt 0.957846 0.130000
vt 0.870000 0.042154
vt 0.750000 0.010000
vt 0.630000 0.042154
vt 0.542154 0.130000
vt 0.510000 0.250000
vt 0.542154 0.370000
vt 0.630000 0.457846
vt 0.370000 0.457846
vt 0.250000 0.490000
vt 0.130000 0.457846
vt 0.042154 0.370000
vt 0.010000 0.250000
vt 0.042154 0.130000
vt 0.130000 0.042154
vt 0.250000 0.010000
vt 0.370000 0.042154
vt 0.457846 0.130000
vt 0.490000 0.250000
vt 0.457846 0.370000
vt 0.833333 1.000000
vt 0.833333 0.500000
vt 0.666667 1.000000
vt 0.666667 0.500000
vt 0.500000 1.000000
vt 0.500000 0.500000
vt 0.333333 1.000000
vt 0.333333 0.500000
vt 0.166667 1.000000
vt 0.166667 0.500000
vt -0.000000 1.000000
vt -0.000000 0.500000
vt 0.419706 0.080294
vt 0.250000 0.250000
vt 0.080294 0.419706
vt 0.080294 0.080294
vt 0.419706 0.419706
vt 0.919706 0.419706
vt 0.919706 0.080294
vt 0.580294 0.080294
vt 0.580294 0.419706
s 0
usemtl Material.001
f 1/1/1 2/2/1 4/3/1 3/4/1
f 3/4/2 4/3/2 6/5/2 5/6/2
f 5/6/3 6/5/3 8/7/3 7/8/3
f 7/8/4 8/7/4 10/9/4 9/10/4
f 9/10/5 10/9/5 12/11/5 11/12/5
f 11/12/6 12/11/6 14/13/6 13/14/6
f 13/14/7 14/13/7 16/15/7 15/16/7
f 15/16/8 16/15/8 18/17/8 17/18/8
f 17/18/9 18/17/9 20/19/9 19/20/9
f 19/20/10 20/19/10 22/21/10 21/22/10
f 10/9/11 8/7/11 28/7/11 29/9/11
f 21/22/12 22/21/12 24/23/12 23/24/12
f 23/24/13 24/23/13 2/25/13 1/26/13
f 1/27/14 3/28/14 5/29/14 7/30/14 9/31/14 11/32/14 13/33/14 15/34/14 17/35/14 19/36/14 21/37/14 23/38/14
f 25/25/15 36/23/15 48/23/15 37/25/15
f 2/25/16 24/23/16 36/23/16 25/25/16
f 4/3/17 2/2/17 25/2/17 26/3/17
f 8/7/18 6/5/18 27/5/18 28/7/18
f 24/23/19 22/21/19 35/21/19 36/23/19
f 6/5/20 4/3/20 26/3/20 27/5/20
f 22/21/21 20/19/21 34/19/21 35/21/21
f 20/19/22 18/17/22 33/17/22 34/19/22
f 18/17/23 16/15/23 32/15/23 33/17/23
f 16/15/24 14/13/24 31/13/24 32/15/24
f 14/13/25 12/11/25 30/11/25 31/13/25
f 12/11/26 10/9/26 29/9/26 30/11/26
f 42/11/27 41/9/27 53/9/27 54/11/27
f 27/5/28 26/3/28 38/3/28 39/5/28
f 34/19/29 33/17/29 45/17/29 46/19/29
f 31/13/30 30/11/30 42/11/30 43/13/30
f 28/7/31 27/5/31 39/5/31 40/7/31
f 35/21/32 34/19/32 46/19/32 47/21/32
f 32/15/33 31/13/33 43/13/33 44/15/33
f 29/9/34 28/7/34 40/7/34 41/9/34
f 36/23/35 35/21/35 47/21/35 48/23/35
f 26/3/36 25/2/36 37/2/36 38/3/36
f 33/17/37 32/15/37 44/15/37 45/17/37
f 30/11/38 29/9/38 41/9/38 42/11/38
f 56/15/39 55/13/39 67/13/39 68/15/39
f 37/25/40 48/23/40 60/23/40 49/25/40
f 39/5/41 38/3/41 50/3/41 51/5/41
f 46/19/42 45/17/42 57/17/42 58/19/42
f 43/13/43 42/11/43 54/11/43 55/13/43
f 40/7/44 39/5/44 51/5/44 52/7/44
f 47/21/45 46/19/45 58/19/45 59/21/45
f 44/15/46 43/13/46 55/13/46 56/15/46
f 41/9/47 40/7/47 52/7/47 53/9/47
f 48/23/48 47/21/48 59/21/48 60/23/48
f 38/3/49 37/2/49 49/2/49 50/3/49
f 45/17/50 44/15/50 56/15/50 57/17/50
f 68/15/46 67/13/46 79/13/46 80/15/46
f 53/9/51 52/7/51 64/7/51 65/9/51
f 60/23/52 59/21/52 71/21/52 72/23/52
f 50/3/53 49/2/53 61/2/53 62/3/53
f 57/17/54 56/15/54 68/15/54 69/17/54
f 54/11/55 53/9/55 65/9/55 66/11/55
f 49/25/56 60/23/56 72/23/56 61/25/56
f 51/5/57 50/3/57 62/3/57 63/5/57
f 58/19/58 57/17/58 69/17/58 70/19/58
f 55/13/59 54/11/59 66/11/59 67/13/59
f 52/7/60 51/5/60 63/5/60 64/7/60
f 59/21/61 58/19/61 70/19/61 71/21/61
f 83/21/62 82/19/62 94/19/62 95/21/62
f 65/9/47 64/7/47 76/7/47 77/9/47
f 72/23/48 71/21/48 83/21/48 84/23/48
f 62/3/49 61/2/49 73/2/49 74/3/49
f 69/17/50 68/15/50 80/15/50 81/17/50
f 66/11/27 65/9/27 77/9/27 78/11/27
f 61/25/40 72/23/40 84/23/40 73/25/40
f 63/5/41 62/3/41 74/3/41 75/5/41
f 70/19/42 69/17/42 81/17/42 82/19/42
f 67/13/43 66/11/43 78/11/43 79/13/43
f 64/7/44 63/5/44 75/5/44 76/7/44
f 71/21/45 70/19/45 82/19/45 83/21/45
f 88/7/44 87/5/44 99/5/44 100/7/44
f 80/15/62 79/13/62 91/13/62 92/15/62
f 77/9/62 76/7/62 88/7/62 89/9/62
f 84/23/62 83/21/62 95/21/62 96/23/62
f 74/3/62 73/2/62 85/2/62 86/3/62
f 81/17/62 80/15/62 92/15/62 93/17/62
f 78/11/62 77/9/62 89/9/62 90/11/62
f 73/25/62 84/23/62 96/23/62 85/25/62
f 75/5/62 74/3/62 86/3/62 87/5/62
f 82/19/62 81/17/62 93/17/62 94/19/62
f 79/13/62 78/11/62 90/11/62 91/13/62
f 76/7/62 75/5/62 87/5/62 88/7/62
f 100/7/62 99/5/62 111/5/62 112/7/62
f 95/21/45 94/19/45 106/19/45 107/21/45
f 92/15/46 91/13/46 103/13/46 104/15/46
f 89/9/47 88/7/47 100/7/47 101/9/47
f 96/23/48 95/21/48 107/21/48 108/23/48
f 86/3/49 85/2/49 97/2/49 98/3/49
f 93/17/50 92/15/50 104/15/50 105/17/50
f 90/11/27 89/9/27 101/9/27 102/11/27
f 85/25/40 96/23/40 108/23/40 97/25/40
f 87/5/41 86/3/41 98/3/41 99/5/41
f 94/19/42 93/17/42 105/17/42 106/19/42
f 91/13/43 90/11/43 102/11/43 103/13/43
f 115/13/62 114/11/62 126/11/62 127/13/62
f 107/21/62 106/19/62 118/19/62 119/21/62
f 104/15/62 103/13/62 115/13/62 116/15/62
f 101/9/62 100/7/62 112/7/62 113/9/62
f 108/23/62 107/21/62 119/21/62 120/23/62
f 98/3/62 97/2/62 109/2/62 110/3/62
f 105/17/62 104/15/62 116/15/62 117/17/62
f 102/11/62 101/9/62 113/9/62 114/11/62
f 97/25/62 108/23/62 120/23/62 109/25/62
f 99/5/62 98/3/62 110/3/62 111/5/62
f 106/19/62 105/17/62 117/17/62 118/19/62
f 103/13/62 102/11/62 114/11/62 115/13/62
f 127/13/43 126/11/43 138/11/43 139/13/43
f 112/7/62 111/5/62 123/5/62 124/7/62
f 119/21/62 118/19/62 130/19/62 131/21/62
f 116/15/62 115/13/62 127/13/62 128/15/62
f 113/9/62 112/7/62 124/7/62 125/9/62
f 120/23/62 119/21/62 131/21/62 132/23/62
f 110/3/62 109/2/62 121/2/62 122/3/62
f 117/17/62 116/15/62 128/15/62 129/17/62
f 114/11/62 113/9/62 125/9/62 126/11/62
f 109/25/62 120/23/62 132/23/62 121/25/62
f 111/5/62 110/3/62 122/3/62 123/5/62
f 118/19/62 117/17/62 129/17/62 130/19/62
f 134/39/62 133/40/62 144/41/62 143/42/62 142/43/62 141/44/62 140/45/62 139/46/62 138/47/62 137/48/62 136/49/62 135/50/62
f 124/7/44 123/5/44 135/5/44 136/7/44
f 131/21/45 130/19/45 142/19/45 143/21/45
f 128/15/46 127/13/46 139/13/46 140/15/46
f 125/9/47 124/7/47 136/7/47 137/9/47
f 132/23/48 131/21/48 143/21/48 144/23/48
f 122/3/49 121/2/49 133/2/49 134/3/49
f 129/17/50 128/15/50 140/15/50 141/17/50
f 126/11/27 125/9/27 137/9/27 138/11/27
f 121/25/40 132/23/40 144/23/40 133/25/40
f 123/5/41 122/3/41 134/3/41 135/5/41
f 130/19/42 129/17/42 141/17/42 142/19/42
f 145/1/63 146/2/63 148/51/63 147/52/63
f 147/52/64 148/51/64 150/53/64 149/54/64
f 149/54/65 150/53/65 152/55/65 151/56/65
f 151/56/66 152/55/66 154/57/66 153/58/66
f 148/50/67 146/40/67 156/42/67 154/44/67 152/46/67 150/48/67
f 153/58/68 154/57/68 156/59/68 155/60/68
f 155/60/69 156/59/69 146/61/69 145/62/69
f 145/27/70 147/29/70 149/31/70 151/33/70 153/35/70 155/37/70
f 164/49/14 163/63/14 171/63/14 172/49/14
f 160/43/71 158/64/71 159/65/71
f 162/46/72 158/64/72 161/66/72
f 163/63/73 158/64/73 162/46/73
f 164/49/74 158/64/74 163/63/74
f 165/67/75 158/64/75 164/49/75
f 159/65/76 158/64/76 157/40/76
f 157/40/77 158/64/77 165/67/77
f 161/66/78 158/64/78 160/43/78
f 171/63/79 170/46/79 178/46/79 179/63/79
f 161/66/14 160/43/14 168/43/14 169/66/14
f 160/43/14 159/65/14 167/65/14 168/43/14
f 162/46/14 161/66/14 169/66/14 170/46/14
f 157/40/14 165/67/14 173/67/14 166/40/14
f 159/65/14 157/40/14 166/40/14 167/65/14
f 163/63/14 162/46/14 170/46/14 171/63/14
f 165/67/14 164/49/14 172/49/14 173/67/14
f 174/27/14 181/68/14 180/30/14 179/69/14 178/33/14 177/70/14 176/36/14 175/71/14
f 170/46/80 169/66/80 177/66/80 178/46/80
f 169/66/81 168/43/81 176/43/81 177/66/81
f 168/43/82 167/65/82 175/65/82 176/43/82
f 167/65/83 166/40/83 174/40/83 175/65/83
f 166/40/84 173/67/84 181/67/84 174/40/84
f 173/67/85 172/49/85 180/49/85 181/67/85
f 172/49/86 171/63/86 179/63/86 180/49/86
